<?xml version="1.0" encoding="iso-8859-1"?>
<!-- Generator: Adobe Illustrator 16.0.0, SVG Export Plug-In . SVG Version: 6.00 Build 0)  -->
<!DOCTYPE svg PUBLIC "-//W3C//DTD SVG 1.1//EN" "http://www.w3.org/Graphics/SVG/1.1/DTD/svg11.dtd">
<svg version="1.1" id="Capa_1" xmlns="http://www.w3.org/2000/svg" xmlns:xlink="http://www.w3.org/1999/xlink" x="0px" y="0px"
	 width="97.75px" height="97.75px" viewBox="0 0 97.75 97.75" style="enable-background:new 0 0 97.75 97.75;" xml:space="preserve"
	>
<g>
	<path d="M48.875,0C21.883,0,0,21.882,0,48.875S21.883,97.75,48.875,97.75S97.75,75.868,97.75,48.875S75.867,0,48.875,0z
		 M25.676,69.248H12.365v-4.033h13.311V69.248z M25.676,64.006H12.365V59.97h13.311V64.006z M25.676,58.762H12.365v-4.035h13.311
		V58.762z M25.676,53.516H12.365v-4.033h13.311V53.516z M25.676,48.271H12.365v-4.034h13.311V48.271z M40.604,69.248H27.291v-4.033
		h13.313V69.248z M40.604,64.006H27.291V59.97h13.313V64.006z M40.604,58.762H27.291v-4.035h13.313V58.762z M55.531,69.248H42.219
		v-4.033h13.313L55.531,69.248L55.531,69.248z M55.531,64.006H42.219V59.97h13.313L55.531,64.006L55.531,64.006z M55.531,58.762
		H42.219v-4.035h13.313L55.531,58.762L55.531,58.762z M55.531,53.516H42.219v-4.033h13.313L55.531,53.516L55.531,53.516z
		 M55.531,48.271H42.219v-4.034h13.313L55.531,48.271L55.531,48.271z M55.531,43.026H42.219v-4.034h13.313L55.531,43.026
		L55.531,43.026z M55.531,37.783H42.219v-4.035h13.313L55.531,37.783L55.531,37.783z M70.457,69.248H57.145v-4.033h13.313
		L70.457,69.248L70.457,69.248z M70.457,64.006H57.145V59.97h13.313L70.457,64.006L70.457,64.006z M70.457,58.762H57.145v-4.035
		h13.313L70.457,58.762L70.457,58.762z M70.457,53.516H57.145v-4.033h13.313L70.457,53.516L70.457,53.516z M70.457,48.271H57.145
		v-4.034h13.313L70.457,48.271L70.457,48.271z M85.385,69.248H72.072v-4.033h13.312V69.248z M85.385,64.006H72.072V59.97h13.312
		V64.006z M85.385,58.759H72.072v-4.034h13.312V58.759z M85.385,53.516H72.072V49.48h13.312V53.516z M85.385,48.271H72.072v-4.037
		h13.312V48.271z M85.385,43.025H72.072v-4.033h13.312V43.025z M85.385,37.78H72.072v-4.033h13.312V37.78z M72.072,32.536v-4.034
		h13.312v4.034H72.072z"/>
</g>
<g>
</g>
<g>
</g>
<g>
</g>
<g>
</g>
<g>
</g>
<g>
</g>
<g>
</g>
<g>
</g>
<g>
</g>
<g>
</g>
<g>
</g>
<g>
</g>
<g>
</g>
<g>
</g>
<g>
</g>
</svg>
