<?xml version="1.0" encoding="utf-8"?>
<!-- Generator: Adobe Illustrator 22.1.0, SVG Export Plug-In . SVG Version: 6.00 Build 0)  -->
<svg version="1.1" id="Layer_1" xmlns="http://www.w3.org/2000/svg" xmlns:xlink="http://www.w3.org/1999/xlink" x="0px" y="0px"
	 viewBox="0 0 512 512" style="enable-background:new 0 0 512 512;" xml:space="preserve">
<g>
	<title>google-podcasts</title>
	<g>
		<path d="M59.2,212.4c-15.5,0-28.1,12.6-28.1,28.1v30.5c0,37.5,56.2,37.5,56.2,0v-30.5C87.3,225,74.7,212.4,59.2,212.4z
			 M452.9,212.4c-15.5,0-28.1,12.6-28.1,28.1v30.5c0,37.5,56.2,37.5,56.2,0v-30.5C481,225,468.4,212.4,452.9,212.4z M156.3,304.5
			c-15.5,0-28.1,12.6-28.1,28.1v30.5c0,37.5,56.2,37.5,56.2,0v-30.3c0-15.6-12.5-28.1-28.1-28.1V304.5z M156.3,120.4
			c-15.5,0-28.1,12.6-28.1,28.1V249c0,37.5,56.2,37.5,56.2,0V148.4c0-15.6-12.5-28.1-28.1-28.1V120.4z M355.8,120.4
			c-15.6,0-28.1,12.6-28.1,28.1v30.8c0,37.5,56.2,37.5,56.2,0v-30.8C383.9,133,371.3,120.4,355.8,120.4z M256,31
			c-15.5,0-28.1,12.6-28.1,28.1v30.5c0,37.5,56.2,37.5,56.2,0V59.1C284.1,43.6,271.6,31,256,31z M256,393.9
			c-15.5,0-28.1,12.6-28.1,28.1v30.8c-0.1,37.5,56.1,37.7,56.2,0.2v-30.8c0-15.4-12.6-28.1-28.1-28.1V393.9z M355.8,235.3
			c-15.6,0-28.1,12.7-28.1,28.1v99.9c0,37.5,56.2,37.5,56.2,0v-99.9C383.9,247.9,371.3,235.3,355.8,235.3z M256,145.9
			c-15.5,0-28.1,12.7-28.1,28.1v163.7c0,37.5,56.2,37.5,56.2,0V174.2c0-15.6-12.6-28.1-28.1-28.1V145.9z"/>
	</g>
</g>
</svg>
